<?xml version="1.0" encoding="utf-8"?>
<!-- Generator: Adobe Illustrator 19.1.1, SVG Export Plug-In . SVG Version: 6.00 Build 0)  -->
<svg version="1.1" id="Layer_1" xmlns="http://www.w3.org/2000/svg" xmlns:xlink="http://www.w3.org/1999/xlink" x="0px" y="0px"
	 width="127.9px" height="36.4px" viewBox="0 0 127.9 36.4" enable-background="new 0 0 127.9 36.4" xml:space="preserve">
<g>
	<path id="Black_2_" fill="#F7F8F8" d="M118.5,36.4c0.1-2.7-1.7-6.5-4.2-7.5c-0.6-0.2-1.4-0.4-1.4,0.4V34c0,1.1-0.3,2.4-2.4,2.4
		H99.9V19.6h7.6c11,0,18.9,5.3,20.5,16.8H118.5z"/>
	<path id="Black_1_" fill="#F26922" d="M118.5,0c0.1,2.7-1.7,6.5-4.2,7.5c-0.6,0.2-1.4,0.4-1.4-0.4V2.4c0-1.1-0.3-2.4-2.4-2.4H99.9
		v16.8h7.6c11,0,18.9-5.3,20.5-16.8H118.5z"/>
	<path fill="#F7F8F8" d="M11,7.6H0V0h31v7.6h-11v28.7H11V7.6z"/>
	<path fill="#F7F8F8" d="M53.7,28.7H42.3l-2.2,7.6H31L43.3,0h9.4L65,36.4h-9.2L53.7,28.7z M48,8.3c0,0-0.8,4-1.5,6.3l-2.1,7.1h7.2
		l-2-7.1c-0.7-2.3-1.5-6.3-1.5-6.3H48z"/>
	<path fill="#F7F8F8" d="M70.6,0h8.9v28.7h14.9v7.6H70.6V0z"/>
</g>
</svg>
